<?xml version="1.0" encoding="UTF-8"?>
<svg id="Layer_1" xmlns="http://www.w3.org/2000/svg" xmlns:xlink="http://www.w3.org/1999/xlink" version="1.1" viewBox="0 0 160 90.6">
  <!-- Generator: Adobe Illustrator 29.2.1, SVG Export Plug-In . SVG Version: 2.1.0 Build 116)  -->
  <path d="M52.5,30.2c0-2.9,0-5.6.7-8.4,1.1-4.2,3.1-7.8,6.1-10.9,5-5.2,11.1-7.9,18.3-8.1,4.1-.2,8.1.4,11.9,2.1,3.7,1.7,7,4,9.6,7.3,2.2,2.8,3.9,5.8,4.9,9.2,1.3,4.3,1.3,8.7.2,13-.8,2.9-2,5.5-3.9,7.9-1,1.3-2,2.6-3.1,3.8-1.5,1.6-3.2,2.8-5,3.9-4.7,2.9-9.9,3.6-15.3,3.4-2.5,0-5-.6-7.3-1.5-4-1.6-7.5-3.9-10.4-7-2.9-3.1-4.9-6.8-6-11-.3-1.2-.4-2.4-.6-3.7M64.2,22.7c-.5,1.5-.6,3.1-.6,4.7-.2,4.3.5,8.3,2.6,12.2,1.1,2.1,2.5,3.9,4.3,5.3,3.1,2.3,6.5,3.4,10.3,2.7,2.8-.5,5.2-2,7.3-3.9,3.8-3.6,5.5-8.1,5.7-13.2.1-2.9-.2-5.7-.9-8.6-1.1-4.2-3.1-7.7-6.6-10.4-3.2-2.4-6.8-3-10.6-2.2-3.5.8-6.1,3-8.2,5.9-1.6,2.2-2.8,4.7-3.3,7.5M97.9,29.2c-.8,0-1.6,0-2.3,0-.2,0-.4,0-.5.3,0,.3,0,.5.3.6.2,0,.4,0,.5,0,1.8,0,3.7,0,5.5-.1.3,0,.7,0,.6-.5,0-.4-.4-.4-.6-.4-1.1,0-2.3,0-3.6,0M97.9,20.2c.5,0,1.1,0,1.6,0,.3,0,.6,0,.6-.5,0-.4-.3-.4-.6-.4-1.7,0-3.4,0-5.1,0-.3,0-.6.1-.6.5,0,.5.3.5.7.5,1.1,0,2.2,0,3.4,0M61.1,29.2c-1.7,0-3.5,0-5.2,0-.4,0-.8,0-.8.5,0,.5.5.4.8.4,1.6,0,3.2,0,4.8,0,.4,0,.7,0,1.1,0,.2,0,.4-.1.4-.4,0-.2-.1-.3-.3-.4-.2,0-.4,0-.7,0M95.2,27.3c.2.3.5.3.7.3,1.8,0,3.7,0,5.5,0,.3,0,.7,0,.7-.4,0-.4-.4-.4-.7-.4-1.9,0-3.8,0-5.7,0-.3,0-.7,0-.6.6M59.6,32.6c.8,0,1.5,0,2.3,0,.3,0,.5,0,.5-.4,0-.3-.3-.4-.5-.4-1.9,0-3.9,0-5.8,0-.3,0-.7.1-.6.5,0,.4.4.5.7.4,1.1-.2,2.2,0,3.5,0M97.7,32.6c1.1,0,2.3,0,3.4,0,.3,0,.7,0,.8-.3,0-.4-.4-.5-.7-.5-1.9,0-3.7,0-5.6,0-.3,0-.6,0-.6.4,0,.4.3.4.6.4.6,0,1.3,0,2.1,0M60.7,26.7c-1.5,0-3,0-4.4,0-.4,0-1.1-.1-1.1.4,0,.6.6.4,1,.4,1.4,0,2.8,0,4.1,0,.4,0,.8,0,1.2,0,.3,0,.6,0,.5-.4,0-.3-.3-.4-.6-.4-.2,0-.5,0-.9,0M96.5,25.1c1.5,0,3,0,4.4,0,.4,0,.9.1.9-.4,0-.6-.5-.4-.9-.4-1.2,0-2.5,0-3.7,0-.5,0-1,0-1.6,0-.3,0-.6,0-.6.4,0,.4.3.4.6.4.2,0,.5,0,.9,0M98.7,21.7c-1.2,0-2.5,0-3.7,0-.3,0-.6,0-.6.4,0,.4.3.5.6.5.3,0,.5,0,.8,0,1.6,0,3.1,0,4.7,0,.3,0,.8,0,.7-.5,0-.4-.4-.4-.7-.4-.5,0-1,0-1.7,0M56.1,25c.3,0,.6,0,.9,0,1.6,0,3.1,0,4.7,0,.3,0,.6,0,.6-.4,0-.3-.2-.4-.5-.4-1.9,0-3.8,0-5.7,0-.2,0-.5,0-.5.3,0,.3.2.4.5.5M62.6,35.1c.3,0,.4-.3.3-.5-.1-.3-.3-.3-.6-.3-1.4.2-2.8,0-4.1,0-.4,0-.9,0-1.3,0-.3,0-.6,0-.6.4,0,.4.3.4.6.5.1,0,.3,0,.4,0,1.8,0,3.5,0,5.4-.1M57.6,21.7c-.2,0-.4,0-.6,0-.3,0-.8-.1-.8.4,0,.4.4.5.8.5,1.7,0,3.4,0,5.1,0,.3,0,.6,0,.6-.3,0-.4-.3-.4-.6-.4-1.4,0-2.8,0-4.4-.1M61.8,19.3c-1.3,0-2.7,0-4,0-.3,0-.6,0-.6.4,0,.4.3.5.6.5,1.8,0,3.5,0,5.3-.1.2,0,.5,0,.5-.4,0-.3-.3-.4-.5-.4-.4,0-.7,0-1.2,0M62.8,37.6c.3,0,.7,0,.7-.4,0-.4-.4-.4-.7-.4-1.6,0-3.2,0-4.8,0-.3,0-.7,0-.6.4,0,.4.4.4.7.4,1.6,0,3.1,0,4.8,0M63,16.7c-1.3,0-2.5,0-3.8,0-.3,0-.6,0-.6.4,0,.3.3.4.5.4,1.7,0,3.3,0,5,0,.2,0,.4-.1.4-.4,0-.3-.2-.4-.4-.4-.3,0-.6,0-1,0M97.7,16.7c-1.3,0-2.5,0-3.8,0-.4,0-1-.1-1,.5,0,.6.6.4,1,.4.8,0,1.6,0,2.4,0,.6,0,1.2,0,1.9,0,.2,0,.5-.1.5-.4,0-.3-.2-.4-.5-.4-.1,0-.3,0-.5,0M59.4,40.1c1.5,0,3,0,4.4,0,.3,0,.6,0,.6-.5,0-.4-.3-.4-.5-.4-1.5,0-3,0-4.5,0-.2,0-.5,0-.6.3,0,.3.1.5.5.6M98.8,34.3c-1.2,0-2.3,0-3.5,0-.3,0-.6,0-.6.5,0,.4.2.4.5.4,1.8,0,3.5,0,5.3,0,.2,0,.6,0,.5-.4,0-.3-.3-.4-.6-.4-.5,0-1,0-1.7,0M95.1,37.6c1.4,0,2.9.3,4.3,0,.2,0,.4,0,.5-.3,0-.3-.2-.4-.5-.4-1.6,0-3.2,0-4.8-.1-.3,0-.5.1-.5.5,0,.3.2.4.5.4.1,0,.3,0,.5,0M97.2,39.2c-1.2,0-2.4.2-3.6,0-.3,0-.6,0-.6.4,0,.3.2.5.5.5,1.4,0,2.8,0,4.2,0,.2,0,.5,0,.5-.4,0-.3-.2-.4-.4-.5-.1,0-.3,0-.5,0Z"/>
  <path d="M41.1,64c0-1.5,0-2.8,0-4.2,0-.6-.3-.8-.7-1-.2-.2-.6-.2-.5-.6,0-.4.4-.7.8-.7.9,0,1.9,0,2.8,0,.4,0,.7.4.8.8.1.4-.2.6-.5.7-.2,0-.3.3-.4.5-.3,2-.2,2.2,1.8,2.2,1.8,0,1.6.1,1.6-1.6,0-.6,0-1.1-.7-1.4-.2-.1-.3-.3-.2-.6,0-.3.2-.5.5-.5.9,0,1.9-.1,2.8-.1.4,0,.7.2.8.6.1.4-.1.6-.4.8-.4.3-.5.7-.5,1.1,0,1.9.1,3.8.2,5.7,0,.4.2.8.5,1.1.2.2.3.5.2.8-.2.3-.5.4-.8.4-.8,0-1.5,0-2.3,0-.4,0-.7,0-.8-.5-.1-.4,0-.6.3-.8.8-.7.5-1.7.5-2.6,0-.2-.2-.3-.4-.3-.8,0-1.6,0-2.4,0-.5,0-.7.2-.7.7,0,.8-.2,1.7.6,2.4.4.3,0,1-.5,1.1-.9.1-1.8.2-2.6,0-.6,0-.9-.7-.5-1,1-.8.5-1.9.6-2.9Z"/>
  <path d="M76.3,64.4c.7.9,1.3,1.9,2.4,2.3.5.2.5.6,0,1-.9.7-3.1.2-3.6-.7-.6-.9-1.2-1.8-1.7-2.7-.2-.4-.5-.6-1-.4-.5.1-.4.5-.4.8,0,.8,0,1.6.8,2.1.4.2.3.8-.3.9-1.1.3-2.2.2-3.3.1-.5,0-.6-.7-.2-1,.5-.5.6-1,.6-1.7,0-1.7,0-3.5,0-5.2,0-.5-.1-.9-.6-1.2-.3-.2-.5-.4-.3-.8.2-.4.4-.6.9-.5.5,0,.9.1,1.4.2.7,0,1.3,0,2,0,1.9-.2,3.6.6,4.3,2.2.3.7.3,1.4,0,2-.4.6-.6,1.3-1.1,1.8-.5.4,0,.7.3,1M72.1,62c.7.2,1.4.2,2-.1.8-.3,1-1.2.6-1.8-.4-.7-1.7-1-2.5-.7-.2,0-.4.2-.4.5,0,.7-.1,1.4.2,2.2Z"/>
  <path d="M86.6,65.2c.3-.4.4-.8.4-1.2,0-1.4,0-2.7,0-4.1,0-.4,0-.8-.5-1.1-.3-.2-.4-.6-.3-.9.1-.4.4-.4.8-.4.7,0,1.4,0,2.1-.2.5-.1.8.2,1.1.6.2.5-.1.7-.4.9-.5.3-.7.8-.7,1.4,0,1.3,0,2.6,0,3.8-.3,3.2-3,5.1-6.1,3.4-1.4-.8-1.8-2.1-1.9-3.6,0-1.2,0-2.5,0-3.7,0-.5,0-1-.6-1.3-.3-.2-.5-.5-.3-.9.2-.4.5-.5.8-.4.8.1,1.6,0,2.3,0,.5,0,.9,0,1.1.6.2.5-.2.7-.5.9-.4.2-.4.5-.4.9,0,1.4,0,2.7,0,4.1,0,.8.2,1.5,1.1,1.9.8.4,1.5,0,2.1-.6Z"/>
  <path d="M60.6,58.1c0,.7,0,1.4,0,2,0,.2,0,.5-.4.6-.3,0-.5,0-.6-.3-.8-1.5-2.2-1-3.5-1.1-.3,0-.5.2-.5.5,0,.2,0,.4,0,.5,0,1.4.6,1.8,1.9,1.2,1.2-.5,1.4-.3,1.4,1,0,.6,0,1.3-.7,1.8-.5-.5-1-.9-1.8-.8-.4,0-.6.2-.7.7-.1,1.6,0,1.7,1.6,1.8,1,0,1.9-.2,2.5-1,.2-.2.3-.3.6-.2.2.1.3.3.4.6,0,0,0,.2,0,.2,0,2.2-.2,2.3-2.3,2.3-1.6,0-3.1,0-4.7,0-.3,0-.7,0-.9-.3-.2-.4,0-.7.2-1,.2-.3.4-.5.3-.9,0-2,.1-4,0-5.9,0-.5-.2-.8-.6-1-.3-.2-.6-.5-.4-.9.2-.4.6-.5,1-.5,1.6.2,3.2.1,4.8.1.4,0,.9,0,1.3-.2.7-.3,1,0,1,.7Z"/>
  <path d="M60.9,75c0-.7,0-1.3,0-1.9,0-.6,0-1.2-.7-1.5-.3-.1-.3-.4-.2-.7,0-.3.3-.5.6-.5,1.7,0,3.5-.2,5.2.2,1.7.4,2.3,2.3,1.4,3.7-.1.1-.2.3-.3.4,0,0,0,.1,0,.2.9.5,1.5,1.3,1.2,2.4-.3,1.3-1.2,2.2-2.5,2.3-1.5.2-3,.2-4.4,0-1,0-1.2-.7-.6-1.5.2-.3.3-.6.3-1,0-.7,0-1.4,0-2.1M64,77.8c.5,0,.9,0,1.4-.3.6-.3.7-.9.3-1.4-.4-.4-2.1-.6-2.6-.2-.1.1-.2.2-.2.4-.2.8.2,1.3,1.1,1.5M62.8,72.4c0,.3,0,.7,0,1,0,.3.1.5.5.5.4,0,.8,0,1.2,0,.6-.1.9-.5.9-1.1,0-.5-.4-.7-.9-.8-.4,0-.7,0-1.1-.1-.3,0-.6,0-.6.6Z"/>
  <path d="M97.4,79.5c-.4-.1-.7-.4-1-.7-.8-1.4-2.2-2.4-3.1-3.7,0-.1-.2-.2-.5-.2.1,1.1-.5,2.3.5,3.4.4.5.2.9-.4,1.1-.6.2-1.2.2-1.8.2-.4,0-.7-.3-.8-.6-.2-.3.1-.6.3-.7.7-.6.6-1.5.6-2.3,0-1,0-2-.1-3,0-.7-.1-1.3-.8-1.7-.2-.1-.3-.3-.2-.6,0-.3.3-.4.5-.4.9,0,1.7,0,2.6,0,.4,0,.6.2.7.6.3,1.3.9,2.4,1.8,3.4.2.2.3.5.6.3.3-.1.3-.4.3-.7,0-.5,0-1-.1-1.5,0-.5-.3-.9-.7-1.1-.2-.1-.4-.3-.3-.6,0-.3.3-.4.6-.5.8,0,1.5-.1,2.3-.1.4,0,.7.2.8.6.2.4-.2.6-.5.8-.4.2-.6.6-.6,1,0,1.6,0,3.2,0,4.8,0,.2,0,.4.2.6.4,1.1.3,1.3-.9,1.5Z"/>
  <path d="M120,66.2c-2.4-3.3-1.4-7.3,2.2-8.5,1.1-.4,2.3-.5,3.4,0,.7.3,1.2.5,1.5-.4.6.2.5.7.6,1.1.2.8.3,1.7,0,2.5-.1.4-.4.6-.8.6-.4,0-.5-.2-.6-.5-.6-1.3-1.6-1.7-3-1.5-1.3.3-2.1,1.2-2.1,2.6,0,.5,0,1,.2,1.5.6,2.3,3.3,3,5.1,1.4.3-.3.6-.8,1.2-.4.5.4.5.9.2,1.5-.6,1.2-2.8,2.2-4.3,2.1-1.5-.1-2.6-.8-3.6-1.9Z"/>
  <path d="M96.8,67.9c-1.1.2-2.2,0-3.2-.3-.4-.1-1,.2-1.2-.3-.3-.5-.2-1.1-.1-1.6,0-.2,0-.3,0-.5.2-.7.8-.9,1.3-.3.6.7,1.3,1.1,2.1,1.1.8,0,1.5-.4,1.6-.9,0-.6-.4-1.2-1.3-1.4-1.1-.2-2.1-.5-2.9-1.3-1-1.1-1-2.5,0-3.6,1-1.3,3.3-1.7,4.8-1,.2,0,.3.2.4.3.2.5.5.6,1,.3.3.7.2,1.3,0,1.9-.1.3-.3.6-.7.6-.3,0-.5-.2-.6-.5-.5-1-1.7-1.5-2.7-1.1-.3.2-.6.4-.7.8,0,.4.3.6.6.8.3.2.6.3,1,.4.5.2,1.1.3,1.6.6,1.1.7,2,1.5,1.9,2.9,0,1.1-1.4,2.9-2.8,3Z"/>
  <path d="M33.6,67.9c-.5,0-1,0-1.4,0-.6,0-.9-.6-.5-1,.6-.6.6-1.3.6-2,0-1.5,0-3.1,0-4.6,0-.3.2-.8-.4-1-.5-.1-1.4.3-1.5.7,0,.1,0,.3,0,.5,0,.4-.3.6-.7.6-.4,0-.7-.2-.8-.6-.2-1.1,0-2.1.4-3.1,0-.3.4-.4.6-.3,1.2.5,2.5.3,3.7.4,1.1,0,2.2.2,3.3-.4.4-.2.7,0,.9.4.3.9.5,1.9.3,2.8,0,.4-.3.7-.8.7-.5,0-.5-.3-.6-.7,0-.2-.1-.5-.3-.7-.2-.4-.6-.5-1-.4-.4,0-.5.4-.5.7,0,2,0,3.9,0,5.9,0,.3.2.5.4.7.5.6.3,1.1-.4,1.2-.4,0-.8,0-1.3,0Z"/>
  <path d="M79.6,77.8c.8-1.8,1.5-3.5,2.2-5.2.2-.5.5-.9.6-1.4.2-.6.6-1,1.3-1,.8,0,1.2.4,1.5,1,.8,1.7,1.2,3.5,2,5.2.3.8.6,1.5,1.4,1.9.2.1.5.3.4.6,0,.3-.3.5-.6.5-1,.2-2,.1-3,0-.5,0-.6-.6-.4-1.1.5-1,.2-1.5-.9-1.5-.5,0-1.1,0-1.6,0-.4,0-.7.2-.8.6-.1.4,0,.6.3.8.3.2.5.4.3.8-.1.3-.4.4-.7.4-.5,0-.9.1-1.4,0-.5,0-1.1,0-1.3-.6-.2-.6.3-.8.6-1.2M83.3,75.2c.3,0,.8.2.9-.3,0-.6-.2-1.2-.7-1.8-.2.6-.4,1-.6,1.5-.1.3,0,.6.5.6Z"/>
  <path d="M74.3,73.9c.6-.5.9-.4,1,.3.2.8,0,1.6-.2,2.5-.5-.5-.9-1-1.6-.8-.5,0-.7.3-.7.8,0,.5-.2,1.1.5,1.2,1.1.2,2.4.4,3.2-.8.2-.3.4-.4.7-.3.3.1.4.4.4.7,0,.3,0,.6,0,.9,0,1-.4,1.4-1.4,1.4-1.5,0-3,0-4.4,0-.3,0-.6,0-.9-.1-.8-.2-.9-.5-.4-1.1.2-.3.3-.6.3-1,0-1.5-.2-3,0-4.5,0-.6-.1-1.1-.6-1.5-.5-.4-.3-.9.3-1.1.2,0,.5,0,.8,0,1.8,0,3.6.2,5.4,0,.5,0,.8.2.9.7,0,.6,0,1.3-.2,1.9-.2.5-.6.6-1,.1-.7-1-1.8-1-2.8-.9-.7,0-.9.5-.8,1.5,0,.7.5.6.9.6.2,0,.4,0,.7-.1Z"/>
  <path d="M100.7,60.2c0-.5,0-.9,0-1.4.2-.9.8-1.4,1.7-1.3,1.2.1,2.5,0,3.7.1.5,0,1.1,0,1.6-.2.7-.3,1.3,0,1.4.8.1.7.1,1.5,0,2.2,0,.3-.2.7-.6.7-.4,0-.6-.2-.7-.5-.2-.4-.5-.7-.9-.9-.4-.2-.7-.2-.7.4,0,1.9,0,3.9,0,5.8,0,.4.2.8.4,1.2.2.5,0,.8-.5.8-.9,0-1.8,0-2.7-.2-.6,0-.8-.5-.3-.9,1-.7,1-1.6.9-2.6,0-1.3,0-2.5,0-3.8,0-.4,0-.8-.4-.9-.4-.2-.7.1-1,.4-.2.2-.3.4-.4.6-.2.3-.4.7-.9.6-.4,0-.5-.4-.6-.9Z"/>
  <path d="M115.5,66.1c0,.1,0,.2.1.3.2.4.8.7.5,1.3-.3.5-.9.3-1.3.3-.7,0-1.5,0-2.2,0-.3,0-.6-.2-.7-.5-.1-.4.1-.6.4-.7.5-.3.7-.8.8-1.3.3-1.8.1-3.5.1-5.3,0-.6-.4-.8-.8-1.1-.3-.2-.8-.4-.6-1,.2-.5.6-.5,1-.5.8,0,1.5,0,2.3,0,.5,0,.9.2,1.1.6.2.5,0,.7-.4,1-.3.2-.5.5-.4.9,0,2.1-.2,4.2,0,6.3Z"/>
  <path d="M44.8,75.8c-1.3,0-2.5-.2-3.6.2-.6.2-1.3-.5-1.3-1.1,0-.5.5-1,1.2-.9,1.8.3,3.5.1,5.3.1,3.1,0,6.2,0,9.4,0,.3,0,.7,0,1,.1.3.1.5.3.6.6,0,.4-.2.6-.5.7-.4.2-.8.2-1.1.2-3.6,0-7.1,0-10.8,0Z"/>
  <path d="M106.3,75.8c-1,0-1.9,0-2.9,0-.3,0-.6,0-.9,0-.6,0-.9-.4-.9-1,0-.6.5-.7,1-.7,2,0,4,0,5.9,0,2.2,0,4.3,0,6.5,0,.4,0,.8-.1,1.2-.2.8,0,1.3.3,1.3.9,0,.6-.6,1.1-1.3,1.1-.7,0-1.4-.2-2.2-.2-2.6,0-5.1,0-7.7,0Z"/>
  <path d="M93.9,87c-1-.8-1.2-1.5-.8-2.3.4-.8,1.4-1.5,2.2-1.4.9,0,1.8.9,1.9,1.8.2.8-.2,1.4-.8,1.9-.8.6-1.7.6-2.6,0M94.6,85.9c.8.4,1.5.1,1.5-.6,0-.4-.2-.8-.6-.9-.4-.1-.7,0-1,.2-.3.4-.3.8,0,1.3Z"/>
  <path d="M64.7,84.1c.8,1.2.7,1.7-.1,2.7-.6.7-1.5.9-2.3.5-.8-.4-1.3-1.3-1.2-2.3.1-.9.8-1.3,1.5-1.6.8-.3,1.5,0,2.1.7M62.3,85.8c.2.4.6.6,1,.5.3,0,.5-.3.6-.6.1-.4,0-.8-.4-1-.3-.2-.5-.3-.9-.1-.4.3-.7.7-.4,1.3Z"/>
  <path d="M74.7,87.5c-.6,0-.7-.3-.7-.7,0-.9,0-1.9,0-2.8,0-.4.1-.7.6-.7.6,0,1.1-.2,1.7,0,.4,0,.6.3.6.7,0,.4-.4.3-.7.4-.3,0-.7-.1-1,.2,0,.5.5.3.7.3.3,0,.6,0,.6.5,0,.4-.2.5-.5.5-.3,0-.6,0-.9.3.3.3.7.1,1.1.1.4,0,.7.1.7.6,0,.5-.3.5-.7.5-.5,0-1.1,0-1.7,0Z"/>
  <path d="M88.4,84.1c0-.5.2-.7.7-.7.5,0,.5.4.5.7,0,.4,0,.8.6.8.6,0,.7-.4.7-.9,0-.4,0-.7.6-.7.6,0,.5.4.5.8,0,.9,0,1.8,0,2.6,0,.5-.1.7-.6.7-.6,0-.4-.4-.4-.7,0-.4.2-.8-.5-.8-.6,0-.9.1-.8.8,0,.4.1.7-.4.7-.5,0-.8,0-.8-.7,0-.9,0-1.8,0-2.7Z"/>
  <path d="M78.1,86.5c.2-.9,0-1.7,0-2.5,0-.5.2-.7.7-.7.5,0,1,0,1.6,0,.7,0,.9.3.7.9-.5.3-1.2-.2-1.8.4.2.4.6.2.9.3.3,0,.5,0,.6.4,0,.4-.2.5-.5.6-.3,0-.6,0-.9.2.3.4.6.2.9.2.9,0,1,.1.7,1.1-.7,0-1.4,0-2.2,0-.7.1-1-.2-.9-.9Z"/>
  <path d="M86.2,85c.5.3,1.1.5,1,1.2,0,.6-.5,1.1-1.1,1.3-.7.2-1.3,0-1.8-.5-.2-.2-.2-.4,0-.6.2-.3.5-.3.8-.2.3.1.5.5.9.1-.2-.3-.5-.3-.8-.4-.5-.3-.9-.7-.8-1.4,0-.7.6-1.1,1.3-1.2.6-.1,1.2.1,1.6.6.1.1.2.3,0,.5-.2.2-.4.5-.7.3-.3-.1-.5-.3-.8-.2,0,.4.3.4.6.5Z"/>
  <path d="M101.7,84.5c.1,1-.3,1.5-1.3,1.6-.5,0-1.1,0-.9.9,0,.3-.2.4-.5.4-.3,0-.6,0-.7-.4-.1-1.1-.1-2.2,0-3.3,0-.2.2-.2.3-.3,1.1-.4,2.2,0,2.9,1M100.4,84.9c0-.2-.1-.3-.3-.4-.2,0-.4-.1-.5,0-.1.1-.2.3,0,.4,0,.2.3.2.5.2.1,0,.2,0,.4-.2Z"/>
  <path d="M56.9,86.6c-.6-1.1-.5-2,.1-2.6.8-.8,1.7-.9,2.5-.4.3.2.8.3.5.8-.2.4-.6.4-1,.2-.5-.3-1-.1-1.3.4-.3.5,0,.9.5,1.2.2.1.5.2.7,0,.7-.6,1,0,1.4.4-1.2,1.2-2.1,1.2-3.4,0Z"/>
  <path d="M70.1,85.9c0-.6,0-1.2,0-1.8,0-.5.2-.7.7-.7.6,0,1.2,0,1.8,0,.4,0,.6.2.6.5,0,.5-.3.5-.6.5-.3,0-.5,0-.8,0-.2,0-.3,0-.3.3,0,.2.2.2.3.3.2,0,.4,0,.5,0,.3,0,.4.3.4.5,0,.3-.1.5-.4.5-.8,0-1.1.3-1,1.1,0,.4-.3.5-.6.5-.4,0-.6-.1-.6-.5,0-.3,0-.7,0-1.1Z"/>
  <path d="M68.2,84.4c-.3,0-.6,0-.7.3.2.4.5.2.8.2.3,0,.4.2.5.4,0,.3,0,.5-.4.5-.8,0-1.1.3-1,1.1,0,.4-.3.5-.6.5-.4,0-.5-.2-.5-.5.1-1,0-1.9,0-2.9,0-.5.1-.7.6-.7.6,0,1.2,0,1.8,0,.4,0,.7,0,.7.5,0,.5-.3.5-.7.5-.1,0-.3,0-.5,0Z"/>
  <path d="M39.3,27.5c.1,0,.2,0,.3,0,.3,0,.7-.1.8.4,0,.5-.4.5-.8.6.3.6.6,1.1-.6,1.2.5,0,.7.1.9.1.3,0,.5.3.5.6,0,.4-.2.5-.6.5,0,0,0,0,0,0-2.1,0-1.9.4-1.9-1.8,0,0,0-.2,0-.2q0-1.4,1.5-1.3Z"/>
  <path d="M118,29.3c0-.6,0-1.1.5-1.5.6-.5,1.5-.5,1.9.1.6.8.5,2.1-.3,2.6-.5.3-1,.5-1.5.2-.6-.3-.8-.8-.6-1.5M119.6,28.8c-.5,0-.4.3-.5.6,0,.1.1.3.2.2.4,0,.4-.3.3-.6,0,0,0,0,0-.1Z"/>
  <path d="M116.6,30.6c-.6.5-1.3.4-1.9.3-.8-.2-.8-.8,0-1.6-.3-.4-.9-.9-.2-1.5.5-.5,1.2-.5,1.7,0,.6.5.6,1,0,2,.1.3.6.4.3.9Z"/>
  <path d="M111.8,30.9c-.6.1-1,0-1.3-.5-.3-.5,0-.8.3-1.2-.4-.4-.6-.7-.3-1.2.3-.4.6-.6,1.1-.6.6,0,1,.5,1.2,1,.2.8-.2,1.9-.9,2.4Z"/>
  <path d="M43.4,27.6c.3.3.5.5.2.9-.2.2,0,.3,0,.5.4.6.3,1.3-.3,1.7-.5.4-1.3.3-1.7-.2-.4-.5-.2-2.3.2-2.7.4-.4.9-.5,1.5-.2Z"/>
  <path d="M46.7,27.4c.5,0,.7.2.8.6,0,.4-.2.4-.5.6-.4.2-.2.6-.3,1,0,.5.3,1.3-.6,1.2-.8,0-.5-.8-.5-1.2,0-.4,0-.9-.5-1.2-.2,0-.3-.3-.2-.5,0-.3.2-.4.5-.5.4,0,.8,0,1.3,0Z"/>
  <path d="M51.2,86.2c-.2-.1-.3-.2-.3-.4,0-.2.2-.2.4-.2.6.1,1-.2,1.4-.5,0-.6-.7-.5-.8-1,.6,0,1.1.3,1.5.7.3.2,0,.4-.1.6-.5.7-1.2.8-2.1.7Z"/>
  <path d="M33.6,74.9c0-.5.2-.9.7-.9.4,0,.7.3.8.6,0,.4,0,.7-.4.9-.5.2-.8,0-1-.6Z"/>
  <path d="M77.3,35.2c.1-2.4.9-4.5,2.2-6.3,2.2-3.2,3.1-6.7,2.8-10.6-.1-2.3-.9-4.4-2.1-6.4-.2-.3-.6-.6-.3-1,.3-.3.8-.2,1.2,0,3.4,1.1,6.2,3,8.1,6.1,1.9,3.2,2.7,6.7,2.9,10.5.1,2.9,0,5.9-1.1,8.6-1.8,4.5-4.6,8.1-9.5,9.5-1.1.3-1.3.3-1.9-.7-1.9-2.9-2.8-6.1-2.3-9.6M88.1,33.1c-.3.9-.6,1.8-1,2.6-1,1.9-2.1,3.7-4,4.9-.4.2-.7.6-.4,1,.3.5.7.4,1.1.2.4-.2.8-.4,1.2-.7,3.2-2.8,4.5-6.4,4.9-10.4,0-.5,0-1.2-.6-1.3-.7,0-.8.7-.8,1.2,0,.8-.2,1.6-.4,2.5Z"/>
  <path d="M67,19.5c1.3-2.8,3.1-5.1,5.6-6.8,1.3-.8,2.6-1.5,4.2-1.7.6-.1,1,0,1.4.6,2.2,3.6,2.8,7.4,1.8,11.5-.5,2.1-1.6,3.8-2.7,5.6-1.7,2.9-2.3,6.1-2.1,9.4.1,2.3.9,4.5,2.2,6.4.2.3.6.6.3,1-.3.3-.7.3-1.1.2-2.2-.3-4.2-1.3-5.8-2.9-3.2-3.1-5-7-5.3-11.5-.1-2.1-.2-4.1,0-6.2.2-1.9.7-3.8,1.5-5.6M67.7,26.9c0,.6,0,1.4.8,1.4.8,0,.7-.8.7-1.3.1-1.3.4-2.6.7-3.9.6-2.2,1.6-4.1,3.2-5.7.6-.6,1.3-1.1,1.8-1.8.2-.3.3-.7,0-1.1-.3-.4-.7-.2-1,0-.9.5-1.7,1.1-2.3,1.8-2.5,3-3.5,6.7-4,10.6Z"/>
</svg>